<?xml version="1.0" encoding="UTF-8"?>
<svg width="32" height="32" viewBox="0 0 32 32" fill="none" xmlns="http://www.w3.org/2000/svg">
  <!-- Book/Research Icon -->
  <path d="M8 4H24C25.1046 4 26 4.89543 26 6V26C26 27.1046 25.1046 28 24 28H8C6.89543 28 6 27.1046 6 26V6C6 4.89543 6.89543 4 8 4Z" fill="#7AA2F7"/>
  <path d="M10 8H22V10H10V8Z" fill="white"/>
  <path d="M10 14H22V16H10V14Z" fill="white"/>
  <path d="M10 20H18V22H10V20Z" fill="white"/>
  
  <!-- Road/Path Element -->
  <path d="M16 16L20 12L24 16L20 20L16 16Z" fill="#FF79C6"/>
  <path d="M20 12L24 16L20 20" stroke="#FF79C6" stroke-width="2" stroke-linecap="round"/>
</svg> 